<?xml version="1.0" encoding="UTF-8" standalone="no"?>
<!-- Created with Inkscape (http://www.inkscape.org/) -->

<svg
   xmlns:dc="http://purl.org/dc/elements/1.1/"
   xmlns:cc="http://creativecommons.org/ns#"
   xmlns:rdf="http://www.w3.org/1999/02/22-rdf-syntax-ns#"
   xmlns:svg="http://www.w3.org/2000/svg"
   xmlns="http://www.w3.org/2000/svg"
   xmlns:sodipodi="http://sodipodi.sourceforge.net/DTD/sodipodi-0.dtd"
   xmlns:inkscape="http://www.inkscape.org/namespaces/inkscape"
   width="3563.76"
   height="520"
   id="svg3141"
   version="1.1"
   inkscape:version="0.48.1 "
   sodipodi:docname="Neues Dokument 3">
  <defs
     id="defs3143" />
  <sodipodi:namedview
     id="base"
     pagecolor="#ffffff"
     bordercolor="#666666"
     borderopacity="1.0"
     inkscape:pageopacity="0.0"
     inkscape:pageshadow="2"
     inkscape:zoom="0.43738828"
     inkscape:cx="1771.881"
     inkscape:cy="250"
     inkscape:document-units="px"
     inkscape:current-layer="layer1"
     showgrid="false"
     fit-margin-top="0"
     fit-margin-left="0"
     fit-margin-right="0"
     fit-margin-bottom="0"
     inkscape:window-width="1680"
     inkscape:window-height="990"
     inkscape:window-x="-4"
     inkscape:window-y="-4"
     inkscape:window-maximized="1" />
  <metadata
     id="metadata3146">
    <rdf:RDF>
      <cc:Work
         rdf:about="">
        <dc:format>image/svg+xml</dc:format>
        <dc:type
           rdf:resource="http://purl.org/dc/dcmitype/StillImage" />
        <dc:title></dc:title>
      </cc:Work>
    </rdf:RDF>
  </metadata>
  <g
     inkscape:label="Ebene 1"
     inkscape:groupmode="layer"
     id="layer1"
     transform="translate(-186.86408,-72.76915)">
    <g
       id="g24"
       transform="matrix(21.554511,0,0,-21.554511,196.86305,82.769154)">
      <path
         inkscape:connector-curvature="0"
         d="M 0,0 31.21,0 C 25.361,-6.361 18.659,-11.943 11.282,-16.572 6.041,-12.299 2.072,-6.565 0.006,0 L 0,0 z m 0,-10.322 c 2.608,-2.947 5.635,-5.525 8.989,-7.645 C 6.087,-19.679 3.087,-21.245 0,-22.657 l 0,12.335 z m 66.909,-9.205 4.153,0 2.501,11.971 2.5,-11.971 4.13,0 3.528,15.873 -3.193,0 -2.411,-12.147 -2.456,12.147 -4.041,0 -2.478,-12.28 -2.322,12.28 -3.304,0 3.393,-15.873 z m -9.472,-0.002 3.17,0 0,15.865 -3.17,0 0,-15.865 z M 46.006,-6.211 c 2.903,0 4.711,-1.235 4.711,-5.159 0,-3.792 -1.697,-5.578 -4.934,-5.578 -0.67,0 -1.384,0.022 -2.099,0.089 l 0,10.515 c 0.782,0.088 1.585,0.133 2.322,0.133 m -5.47,-13.184 c 1.831,-0.154 3.461,-0.264 5.024,-0.264 5.537,0 8.372,2.733 8.372,8.487 0,5.291 -2.791,7.65 -8.037,7.65 -1.831,0 -3.773,-0.155 -5.359,-0.309 l 0,-15.564 z M 36.571,0 l 51.585,0 0,-23.197 -64.153,0 c -4.18,1.186 -8.039,3.109 -11.425,5.618 8.778,4.807 16.841,10.732 23.993,17.579 m -15.394,-23.197 -20.431,0 c 3.273,1.329 6.47,2.804 9.582,4.418 3.345,-1.944 6.989,-3.444 10.849,-4.418"
         style="fill:#007381;fill-opacity:1;fill-rule:nonzero;stroke:none"
         id="path26" />
    </g>
    <g
       id="g28"
       transform="matrix(21.554511,0,0,-21.554511,3677.104,505.11049)">
      <path
         inkscape:connector-curvature="0"
         d="m 0,0 2.947,0 0,15.873 -2.389,0 0,-12.103 -6.407,12.103 -2.925,0 0,-15.873 2.389,0 0,12.059 L 0,0 z m -15.644,0 2.389,0 0,15.867 -2.389,0 0,-15.867 z m -11.81,0 8.707,0 0,2.094 -6.273,0 0,13.779 -2.434,0 0,-15.873 z m -9.303,13.889 c 1.674,0 2.992,-0.64 2.992,-2.293 0,-1.653 -1.43,-2.756 -3.617,-2.756 -0.425,0 -0.804,0.022 -1.184,0.044 l 0,4.917 c 0.536,0.044 1.117,0.088 1.809,0.088 M -40.932,0 l 2.366,0 0,6.768 c 1.585,0 2.434,-0.838 3.305,-2.469 L -32.984,0 l 2.746,0 -2.947,5.225 c -0.514,0.881 -1.094,1.565 -1.741,2.028 2.053,0.683 3.594,2.182 3.594,4.409 0,2.976 -2.411,4.321 -5.492,4.321 -1.496,0 -2.613,-0.11 -4.108,-0.265 l 0,-15.718 z m -12.92,0 9.377,0 0,2.116 -6.988,0 0,5.027 6.318,0 0,2.094 -6.318,0 0,4.519 6.764,0 0.112,2.117 -9.265,0 0,-15.873 z m -9.08,13.933 c 1.741,0 2.723,-0.596 2.723,-2.029 0,-1.432 -1.049,-2.579 -3.616,-2.579 l -1.117,0 0,4.498 c 0.648,0.066 1.317,0.11 2.01,0.11 m -0.447,-6.57 c 2.702,0 3.885,-0.816 3.885,-2.689 0,-1.874 -1.384,-2.778 -3.438,-2.778 -0.648,0 -1.34,0.022 -2.01,0.088 l 0,5.379 1.563,0 z M -67.331,0.11 c 1.407,-0.132 2.791,-0.242 4.287,-0.242 3.081,0 6.006,1.168 6.006,4.695 0,2.073 -1.161,3.373 -2.97,3.991 1.385,0.705 2.233,1.896 2.233,3.483 0,2.756 -2.143,3.946 -5.179,3.946 -1.519,0 -3.126,-0.132 -4.377,-0.265 l 0,-15.608 z"
         style="fill:#007381;fill-opacity:1;fill-rule:nonzero;stroke:none"
         id="path30" />
    </g>
  </g>
</svg>
